<?xml version="1.0" encoding="UTF-8"?>
<!DOCTYPE svg PUBLIC "-//W3C//DTD SVG 1.1//EN" "http://www.w3.org/Graphics/SVG/1.1/DTD/svg11.dtd">
<svg xmlns="http://www.w3.org/2000/svg" xml:space="preserve" width="599px" height="148px" version="1.1" style="shape-rendering:geometricPrecision; text-rendering:geometricPrecision; image-rendering:optimizeQuality; fill-rule:evenodd; clip-rule:evenodd"
viewBox="0 0 706.28 174.45"
 xmlns:xlink="http://www.w3.org/1999/xlink">
 <defs>
  <style type="text/css">
   <![CDATA[
    .fil0 {fill:#E32124}
    .fil2 {fill:#FEFEFE;fill-rule:nonzero}
    .fil1 {fill:#E32124;fill-rule:nonzero}
   ]]>
  </style>
 </defs>
 <g id="Layer_x0020_1">
  <metadata id="CorelCorpID_0Corel-Layer"/>
  <g id="_2023790847936">
   <path class="fil0" d="M59.39 63.29c4.2,1.76 8.33,3.48 12.45,5.22 0.33,0.14 0.58,0.12 0.89,-0.06 4.85,-2.81 9.71,-5.61 14.56,-8.42 0.32,-0.19 0.54,-0.2 0.87,-0.01 4.85,2.82 9.71,5.61 14.56,8.43 0.33,0.19 0.59,0.19 0.93,0.04 2.64,-1.12 5.28,-2.21 7.93,-3.32 1.47,-0.61 2.95,-1.24 4.45,-1.87 -0.07,-0.06 -0.1,-0.1 -0.14,-0.13 -9.22,-5.31 -18.44,-10.63 -27.65,-15.96 -0.37,-0.21 -0.63,-0.23 -1,-0.01 -6.53,3.78 -13.06,7.55 -19.59,11.32 -2.73,1.57 -5.45,3.15 -8.26,4.77zm14.09 74.26c-0.6,-4.52 -1.2,-8.96 -1.77,-13.39 -0.05,-0.36 -0.19,-0.56 -0.5,-0.74 -4.88,-2.77 -9.75,-5.56 -14.63,-8.34 -0.3,-0.17 -0.41,-0.36 -0.41,-0.71 -0.02,-5.62 -0.05,-11.23 -0.07,-16.85 0,-0.36 -0.11,-0.58 -0.39,-0.79 -3.5,-2.63 -6.99,-5.27 -10.49,-7.91 -0.08,-0.06 -0.18,-0.1 -0.16,-0.09 0,10.69 0,21.42 -0.01,32.14 0,0.4 0.2,0.55 0.49,0.72 5.6,3.19 11.19,6.39 16.78,9.58 3.7,2.11 7.39,4.23 11.16,6.38zm28.44 0.02c0.12,-0.05 0.16,-0.07 0.21,-0.09 9.24,-5.32 18.48,-10.64 27.73,-15.95 0.35,-0.2 0.44,-0.43 0.44,-0.81 0,-10.51 0.01,-21.03 0.03,-31.55 0,-0.17 0,-0.35 0,-0.6 -0.14,0.09 -0.21,0.14 -0.27,0.19 -3.51,2.66 -7.02,5.33 -10.53,7.99 -0.27,0.2 -0.35,0.41 -0.35,0.73 0,5.61 -0.02,11.22 -0.02,16.84 0,0.4 -0.13,0.59 -0.47,0.79 -4.84,2.77 -9.67,5.55 -14.51,8.32 -0.34,0.2 -0.5,0.43 -0.55,0.83 -0.12,1.19 -0.3,2.38 -0.45,3.58 -0.42,3.23 -0.84,6.45 -1.26,9.73zm2.9 -32.78c0.14,-0.1 0.27,-0.18 0.39,-0.28 8.04,-6.09 16.09,-12.18 24.13,-18.28 0.29,-0.21 0.5,-0.27 0.85,-0.12 11.21,4.89 22.43,9.77 33.65,14.64 0.37,0.16 0.58,0.37 0.71,0.77 3.5,11.63 7.03,23.27 10.55,34.9 0.04,0.13 0.09,0.25 0.14,0.38 0.02,-0.01 0.05,-0.02 0.07,-0.02 0,-0.09 0,-0.17 0,-0.25 0,-14.8 -0.01,-29.59 0.01,-44.39 0,-0.61 -0.2,-0.92 -0.7,-1.24 -12.27,-7.74 -24.53,-15.51 -36.79,-23.26 -0.33,-0.21 -0.46,-0.43 -0.47,-0.81 -0.05,-1.66 -0.13,-3.32 -0.2,-4.99 -0.52,-12.84 -1.04,-25.69 -1.55,-38.54 -0.02,-0.39 -0.15,-0.61 -0.49,-0.8 -12.9,-7.44 -25.8,-14.89 -38.71,-22.33 -0.07,-0.05 -0.16,-0.09 -0.32,-0.17 0.07,0.13 0.09,0.17 0.12,0.2 3.8,4.05 7.6,8.09 11.39,12.13 4.61,4.91 9.22,9.82 13.82,14.74 0.16,0.18 0.31,0.47 0.28,0.69 -0.38,3.54 -0.78,7.08 -1.18,10.62 -0.98,8.61 -1.97,17.23 -2.93,25.84 -0.06,0.52 -0.25,0.78 -0.73,0.98 -9.25,3.89 -18.49,7.79 -27.75,11.67 -0.32,0.14 -0.41,0.31 -0.41,0.64 0.01,2.68 0,5.36 0,8.04 0,0.15 0.02,0.3 0.03,0.55 5.46,0 10.89,0 16.43,0 -2.75,4.81 -5.43,9.49 -8.13,14.22 2.62,1.5 5.2,2.98 7.79,4.47zm-34.67 -18.71c5.56,0 10.98,0 16.44,0 0.01,-0.24 0.02,-0.41 0.02,-0.58 0,-2.64 -0.01,-5.29 0.01,-7.94 0,-0.41 -0.15,-0.58 -0.51,-0.73 -9.24,-3.88 -18.46,-7.77 -27.7,-11.65 -0.42,-0.17 -0.62,-0.39 -0.67,-0.86 -0.49,-4.5 -1.01,-9 -1.52,-13.5 -0.86,-7.62 -1.72,-15.24 -2.6,-22.85 -0.04,-0.4 0.03,-0.66 0.3,-0.95 7.03,-7.48 14.05,-14.96 21.07,-22.45 1.4,-1.49 2.8,-2.98 4.2,-4.47 -0.1,-0.03 -0.18,0 -0.24,0.04 -12.93,7.46 -25.86,14.93 -38.8,22.39 -0.3,0.17 -0.42,0.37 -0.43,0.72 -0.19,4.84 -0.4,9.69 -0.59,14.54 -0.4,9.66 -0.79,19.32 -1.17,28.99 -0.01,0.41 -0.15,0.66 -0.51,0.89 -12.28,7.75 -24.55,15.53 -36.84,23.28 -0.46,0.3 -0.61,0.6 -0.61,1.14 0.01,14.83 0.01,29.65 0.01,44.48 0,0.07 0.01,0.15 0.03,0.34 0.08,-0.19 0.12,-0.26 0.14,-0.34 0.93,-3.07 1.85,-6.13 2.78,-9.2 2.62,-8.65 5.23,-17.29 7.86,-25.94 0.07,-0.23 0.3,-0.5 0.52,-0.59 11.24,-4.91 22.49,-9.8 33.73,-14.7 0.36,-0.16 0.59,-0.16 0.91,0.09 8.04,6.1 16.08,12.19 24.12,18.29 0.29,0.21 0.48,0.23 0.79,0.05 2.3,-1.33 4.62,-2.65 6.92,-3.98 0.16,-0.09 0.31,-0.19 0.47,-0.3 -2.7,-4.71 -5.37,-9.38 -8.13,-14.21zm-61.62 65.36c-0.01,0.03 -0.02,0.05 -0.03,0.07 0.25,0.15 0.5,0.3 0.76,0.45 12.67,7.37 25.34,14.75 38.01,22.12 0.31,0.18 0.56,0.33 0.97,0.12 3.73,-1.97 7.48,-3.9 11.23,-5.85 9.25,-4.81 18.5,-9.61 27.75,-14.42 0.3,-0.16 0.53,-0.16 0.84,0 12.82,6.79 25.65,13.57 38.47,20.35 0.4,0.22 0.7,0.23 1.11,0 12.88,-7.39 25.77,-14.77 38.66,-22.14 0.07,-0.05 0.13,-0.11 0.27,-0.22 -0.16,0.02 -0.23,0.01 -0.29,0.03 -11.93,2.75 -23.86,5.49 -35.79,8.25 -0.3,0.07 -0.53,0.06 -0.79,-0.14 -9.84,-7.34 -19.69,-14.68 -29.54,-22 -0.33,-0.24 -0.4,-0.46 -0.35,-0.84 0.58,-4.34 1.13,-8.68 1.69,-13.02 0.73,-5.67 1.46,-11.34 2.21,-17 0.04,-0.35 -0.06,-0.51 -0.35,-0.68 -2.34,-1.36 -4.68,-2.73 -7.02,-4.1 -0.11,-0.07 -0.23,-0.12 -0.37,-0.19 -2.78,4.73 -5.54,9.43 -8.34,14.18 -2.75,-4.76 -5.46,-9.43 -8.17,-14.12 -0.09,0.04 -0.16,0.05 -0.21,0.09 -2.43,1.39 -4.85,2.79 -7.28,4.18 -0.31,0.17 -0.31,0.38 -0.27,0.67 0.28,2.23 0.55,4.47 0.82,6.71 0.95,7.81 1.9,15.62 2.86,23.43 0.04,0.3 -0.03,0.46 -0.26,0.63 -9.95,7.29 -19.89,14.58 -29.84,21.87 -0.17,0.12 -0.47,0.18 -0.68,0.13 -9.49,-2.24 -18.97,-4.5 -28.46,-6.75 -2.54,-0.6 -5.07,-1.21 -7.61,-1.81z"/>
   <path class="fil0" d="M8.53 151.44c2.54,0.6 5.07,1.21 7.61,1.81 9.49,2.25 18.97,4.51 28.46,6.75 0.21,0.05 0.51,-0.01 0.68,-0.13 9.95,-7.29 19.89,-14.58 29.84,-21.87 0.23,-0.17 0.3,-0.33 0.26,-0.63 -0.96,-7.81 -1.91,-15.62 -2.86,-23.43 -0.27,-2.24 -0.54,-4.48 -0.82,-6.71 -0.04,-0.29 -0.04,-0.5 0.27,-0.67 2.43,-1.39 4.85,-2.79 7.28,-4.18 0.05,-0.04 0.12,-0.05 0.21,-0.09 2.71,4.69 5.42,9.36 8.17,14.12 2.8,-4.75 5.56,-9.45 8.34,-14.18 0.14,0.07 0.26,0.12 0.37,0.19 2.34,1.37 4.68,2.74 7.02,4.1 0.29,0.17 0.39,0.33 0.35,0.68 -0.75,5.66 -1.48,11.33 -2.21,17 -0.56,4.34 -1.11,8.68 -1.69,13.02 -0.05,0.38 0.02,0.6 0.35,0.84 9.85,7.32 19.7,14.66 29.54,22 0.26,0.2 0.49,0.21 0.79,0.14 11.93,-2.76 23.86,-5.5 35.79,-8.25 0.06,-0.02 0.13,-0.01 0.29,-0.03 -0.14,0.11 -0.2,0.17 -0.27,0.22 -12.89,7.37 -25.78,14.75 -38.66,22.14 -0.41,0.23 -0.71,0.22 -1.11,0 -12.82,-6.78 -25.65,-13.56 -38.47,-20.35 -0.31,-0.16 -0.54,-0.16 -0.84,0 -9.25,4.81 -18.5,9.61 -27.75,14.42 -3.75,1.95 -7.5,3.88 -11.23,5.85 -0.41,0.21 -0.66,0.06 -0.97,-0.12 -12.67,-7.37 -25.34,-14.75 -38.01,-22.12 -0.26,-0.15 -0.51,-0.3 -0.76,-0.45 0.01,-0.02 0.02,-0.04 0.03,-0.07z"/>
   <path class="fil0" d="M70.15 86.08c2.76,4.83 5.43,9.5 8.13,14.21 -0.16,0.11 -0.31,0.21 -0.47,0.3 -2.3,1.33 -4.62,2.65 -6.92,3.98 -0.31,0.18 -0.5,0.16 -0.79,-0.05 -8.04,-6.1 -16.08,-12.19 -24.12,-18.29 -0.32,-0.25 -0.55,-0.25 -0.91,-0.09 -11.24,4.9 -22.49,9.79 -33.73,14.7 -0.22,0.09 -0.45,0.36 -0.52,0.59 -2.63,8.65 -5.24,17.29 -7.86,25.94 -0.93,3.07 -1.85,6.13 -2.78,9.2 -0.02,0.08 -0.06,0.15 -0.14,0.34 -0.02,-0.19 -0.03,-0.27 -0.03,-0.34 0,-14.83 0,-29.65 -0.01,-44.48 0,-0.54 0.15,-0.84 0.61,-1.14 12.29,-7.75 24.56,-15.53 36.84,-23.28 0.36,-0.23 0.5,-0.48 0.51,-0.89 0.38,-9.67 0.77,-19.33 1.17,-28.99 0.19,-4.85 0.4,-9.7 0.59,-14.54 0.01,-0.35 0.13,-0.55 0.43,-0.72 12.94,-7.46 25.87,-14.93 38.8,-22.39 0.06,-0.04 0.14,-0.07 0.24,-0.04 -1.4,1.49 -2.8,2.98 -4.2,4.47 -7.02,7.49 -14.04,14.97 -21.07,22.45 -0.27,0.29 -0.34,0.55 -0.3,0.95 0.88,7.61 1.74,15.23 2.6,22.85 0.51,4.5 1.03,9 1.52,13.5 0.05,0.47 0.25,0.69 0.67,0.86 9.24,3.88 18.46,7.77 27.7,11.65 0.36,0.15 0.51,0.32 0.51,0.73 -0.02,2.65 -0.01,5.3 -0.01,7.94 0,0.17 -0.01,0.34 -0.02,0.58 -5.46,0 -10.88,0 -16.44,0z"/>
   <path class="fil0" d="M104.82 104.79c-2.59,-1.49 -5.17,-2.97 -7.79,-4.47 2.7,-4.73 5.38,-9.41 8.13,-14.22 -5.54,0 -10.97,0 -16.43,0 -0.01,-0.25 -0.03,-0.4 -0.03,-0.55 0,-2.68 0.01,-5.36 0,-8.04 0,-0.33 0.09,-0.5 0.41,-0.64 9.26,-3.88 18.5,-7.78 27.75,-11.67 0.48,-0.2 0.67,-0.46 0.73,-0.98 0.96,-8.61 1.95,-17.23 2.93,-25.84 0.4,-3.54 0.8,-7.08 1.18,-10.62 0.03,-0.22 -0.12,-0.51 -0.28,-0.69 -4.6,-4.92 -9.21,-9.83 -13.82,-14.74 -3.79,-4.04 -7.59,-8.08 -11.39,-12.13 -0.03,-0.03 -0.05,-0.07 -0.12,-0.2 0.16,0.08 0.25,0.12 0.32,0.17 12.91,7.44 25.81,14.89 38.71,22.33 0.34,0.19 0.47,0.41 0.49,0.8 0.51,12.85 1.03,25.7 1.55,38.54 0.07,1.67 0.15,3.33 0.2,4.99 0.01,0.38 0.14,0.6 0.47,0.81 12.26,7.75 24.52,15.52 36.79,23.26 0.5,0.32 0.7,0.63 0.7,1.24 -0.02,14.8 -0.01,29.59 -0.01,44.39 0,0.08 0,0.16 0,0.25 -0.02,0 -0.05,0.01 -0.07,0.02 -0.05,-0.13 -0.1,-0.25 -0.14,-0.38 -3.52,-11.63 -7.05,-23.27 -10.55,-34.9 -0.13,-0.4 -0.34,-0.61 -0.71,-0.77 -11.22,-4.87 -22.44,-9.75 -33.65,-14.64 -0.35,-0.15 -0.56,-0.09 -0.85,0.12 -8.04,6.1 -16.09,12.19 -24.13,18.28 -0.12,0.1 -0.25,0.18 -0.39,0.28z"/>
   <path class="fil0" d="M101.92 137.57c0.42,-3.28 0.84,-6.5 1.26,-9.73 0.15,-1.2 0.33,-2.39 0.45,-3.58 0.05,-0.4 0.21,-0.63 0.55,-0.83 4.84,-2.77 9.67,-5.55 14.51,-8.32 0.34,-0.2 0.47,-0.39 0.47,-0.79 0,-5.62 0.02,-11.23 0.02,-16.84 0,-0.32 0.08,-0.53 0.35,-0.73 3.51,-2.66 7.02,-5.33 10.53,-7.99 0.06,-0.05 0.13,-0.1 0.27,-0.19 0,0.25 0,0.43 0,0.6 -0.02,10.52 -0.03,21.04 -0.03,31.55 0,0.38 -0.09,0.61 -0.44,0.81 -9.25,5.31 -18.49,10.63 -27.73,15.95 -0.05,0.02 -0.09,0.04 -0.21,0.09z"/>
   <path class="fil0" d="M73.48 137.55c-3.77,-2.15 -7.46,-4.27 -11.16,-6.38 -5.59,-3.19 -11.18,-6.39 -16.78,-9.58 -0.29,-0.17 -0.49,-0.32 -0.49,-0.72 0.01,-10.72 0.01,-21.45 0.01,-32.14 -0.02,-0.01 0.08,0.03 0.16,0.09 3.5,2.64 6.99,5.28 10.49,7.91 0.28,0.21 0.39,0.43 0.39,0.79 0.02,5.62 0.05,11.23 0.07,16.85 0,0.35 0.11,0.54 0.41,0.71 4.88,2.78 9.75,5.57 14.63,8.34 0.31,0.18 0.45,0.38 0.5,0.74 0.57,4.43 1.17,8.87 1.77,13.39z"/>
   <path class="fil0" d="M59.39 63.29c2.81,-1.62 5.53,-3.2 8.26,-4.77 6.53,-3.77 13.06,-7.54 19.59,-11.32 0.37,-0.22 0.63,-0.2 1,0.01 9.21,5.33 18.43,10.65 27.65,15.96 0.04,0.03 0.07,0.07 0.14,0.13 -1.5,0.63 -2.98,1.26 -4.45,1.87 -2.65,1.11 -5.29,2.2 -7.93,3.32 -0.34,0.15 -0.6,0.15 -0.93,-0.04 -4.85,-2.82 -9.71,-5.61 -14.56,-8.43 -0.33,-0.19 -0.55,-0.18 -0.87,0.01 -4.85,2.81 -9.71,5.61 -14.56,8.42 -0.31,0.18 -0.56,0.2 -0.89,0.06 -4.12,-1.74 -8.25,-3.46 -12.45,-5.22z"/>
   <polygon class="fil0" points="204.96,174.45 706.27,174.45 706.27,127.09 204.96,127.09 "/>
   <polygon class="fil1" points="212.89,101.64 270.55,1.22 285.43,1.22 220.26,114.02 205.53,114.02 140.2,1.22 155.09,1.22 "/>
   <polygon class="fil1" points="300.78,114.02 313.63,114.02 313.63,1.22 300.78,1.22 "/>
   <path class="fil1" d="M349.96 59.19l75.06 0c1.67,0 3.08,-0.57 4.22,-1.72 1.15,-1.14 1.72,-2.55 1.72,-4.21l0 -32.95c0,-1.66 -0.57,-3.09 -1.72,-4.29 -1.14,-1.19 -2.55,-1.79 -4.22,-1.79l-75.06 0c-1.67,0 -3.1,0.6 -4.3,1.79 -1.2,1.2 -1.8,2.63 -1.8,4.29l0 32.95c0,1.66 0.6,3.07 1.8,4.21 1.2,1.15 2.63,1.72 4.3,1.72zm93.85 -39.01l0 33.06c0,5.22 -1.83,9.66 -5.48,13.31 -3.66,3.66 -8.1,5.49 -13.32,5.49l-17.23 0 35.4 41.98 -16.73 0 -35.2 -41.98 -41.29 0c-0.94,0 -2.97,-0.21 -6.1,-0.63l0 42.61 -12.85 0 0 -112.64 94 0c5.22,0 9.66,1.83 13.32,5.48 3.65,3.66 5.48,8.1 5.48,13.32z"/>
   <path class="fil1" d="M560.21 95.07l0 -93.85 12.85 0 0 94c0,5.22 -1.83,9.66 -5.49,13.32 -3.66,3.66 -8.11,5.48 -13.34,5.48l-75.3 0c-5.23,0 -9.68,-1.82 -13.34,-5.48 -3.66,-3.66 -5.49,-8.1 -5.49,-13.32l0 -94 12.85 0 0 93.85c0,1.67 0.6,3.11 1.8,4.31 1.19,1.19 2.63,1.79 4.3,1.79l75.06 0c1.67,0 3.1,-0.6 4.3,-1.79 1.2,-1.2 1.8,-2.64 1.8,-4.31z"/>
   <path class="fil1" d="M702.3 20.02l0 4.39 -12.85 0 0 -4.32c0,-1.65 -0.6,-3.06 -1.79,-4.24 -1.21,-1.19 -2.64,-1.78 -4.31,-1.78l-75.06 0c-1.67,0 -3.1,0.6 -4.3,1.79 -1.2,1.2 -1.8,2.63 -1.8,4.3l0 25.11c0,1.67 0.6,3.07 1.81,4.21 1.2,1.15 2.63,1.72 4.3,1.72l75.2 0c5.22,0 9.66,1.83 13.32,5.48 3.65,3.66 5.48,8.1 5.48,13.32l0 25.22c0,5.22 -1.83,9.66 -5.49,13.32 -3.66,3.66 -8.11,5.48 -13.34,5.48l-75.29 0c-5.24,0 -9.68,-1.85 -13.34,-5.55 -3.66,-3.7 -5.49,-8.17 -5.49,-13.41l0 -4.38 12.84 0 0 4.38c0,1.68 0.6,3.11 1.8,4.31 1.2,1.2 2.63,1.8 4.3,1.8l75.06 0c1.67,0 3.1,-0.59 4.31,-1.79 1.19,-1.19 1.79,-2.63 1.79,-4.29l0 -25.12c0,-1.66 -0.6,-3.06 -1.8,-4.21 -1.2,-1.14 -2.64,-1.71 -4.3,-1.71l-75.2 0c-5.23,0 -9.66,-1.83 -13.32,-5.49 -3.65,-3.65 -5.48,-8.09 -5.48,-13.31l0 -25.23c0,-5.22 1.83,-9.66 5.49,-13.31 3.66,-3.66 8.1,-5.49 13.34,-5.49l75.29 0c5.23,0 9.68,1.83 13.34,5.49 3.66,3.65 5.49,8.09 5.49,13.31z"/>
   <polygon class="fil1" points="216.87,101.85 274.53,1.43 289.41,1.43 224.24,114.22 209.51,114.22 144.18,1.43 159.06,1.43 "/>
   <polygon class="fil1" points="304.76,114.22 317.61,114.22 317.61,1.43 304.76,1.43 "/>
   <path class="fil1" d="M353.94 59.39l75.06 0c1.67,0 3.08,-0.57 4.22,-1.72 1.15,-1.14 1.72,-2.55 1.72,-4.21l0 -32.94c0,-1.67 -0.57,-3.1 -1.72,-4.3 -1.14,-1.19 -2.55,-1.79 -4.22,-1.79l-75.06 0c-1.67,0 -3.1,0.6 -4.3,1.79 -1.2,1.2 -1.8,2.63 -1.8,4.3l0 32.94c0,1.66 0.6,3.07 1.8,4.21 1.2,1.15 2.63,1.72 4.3,1.72zm93.85 -39.01l0 33.06c0,5.22 -1.83,9.66 -5.48,13.31 -3.66,3.66 -8.1,5.49 -13.32,5.49l-17.23 0 35.4 41.98 -16.73 0 -35.2 -41.98 -41.29 0c-0.94,0 -2.97,-0.21 -6.1,-0.63l0 42.61 -12.85 0 0 -112.64 94 0c5.22,0 9.66,1.83 13.32,5.48 3.65,3.66 5.48,8.1 5.48,13.32z"/>
   <path class="fil1" d="M564.19 95.28l0 -93.85 12.85 0 0 93.99c0,5.23 -1.83,9.66 -5.49,13.32 -3.67,3.66 -8.11,5.48 -13.34,5.48l-75.3 0c-5.23,0 -9.68,-1.82 -13.34,-5.48 -3.66,-3.66 -5.49,-8.09 -5.49,-13.32l0 -93.99 12.85 0 0 93.85c0,1.66 0.59,3.1 1.8,4.3 1.19,1.2 2.63,1.8 4.3,1.8l75.06 0c1.67,0 3.1,-0.6 4.3,-1.8 1.2,-1.2 1.8,-2.64 1.8,-4.3z"/>
   <path class="fil1" d="M706.28 20.22l0 4.39 -12.84 0 0 -4.32c0,-1.64 -0.61,-3.06 -1.81,-4.24 -1.19,-1.19 -2.62,-1.78 -4.29,-1.78l-75.07 0c-1.67,0 -3.1,0.6 -4.3,1.8 -1.2,1.19 -1.8,2.62 -1.8,4.29l0 25.11c0,1.67 0.61,3.07 1.8,4.21 1.2,1.15 2.64,1.72 4.31,1.72l75.2 0c5.22,0 9.66,1.83 13.32,5.48 3.65,3.66 5.48,8.1 5.48,13.32l0 25.22c0,5.23 -1.83,9.66 -5.49,13.32 -3.66,3.66 -8.11,5.48 -13.33,5.48l-75.31 0c-5.23,0 -9.67,-1.85 -13.33,-5.55 -3.67,-3.7 -5.49,-8.17 -5.49,-13.4l0 -4.39 12.84 0 0 4.39c0,1.67 0.6,3.1 1.8,4.3 1.2,1.21 2.63,1.81 4.3,1.81l75.07 0c1.67,0 3.1,-0.6 4.29,-1.8 1.2,-1.19 1.81,-2.63 1.81,-4.29l0 -25.11c0,-1.67 -0.61,-3.07 -1.81,-4.22 -1.2,-1.14 -2.64,-1.71 -4.3,-1.71l-75.2 0c-5.23,0 -9.66,-1.83 -13.32,-5.49 -3.66,-3.65 -5.48,-8.09 -5.48,-13.31l0 -25.23c0,-5.22 1.82,-9.65 5.49,-13.31 3.66,-3.66 8.1,-5.48 13.33,-5.48l75.31 0c5.22,0 9.67,1.82 13.33,5.48 3.66,3.66 5.49,8.09 5.49,13.31z"/>
   <path class="fil2" d="M495.95 158.67l6.01 -16.51c0.13,-0.37 0.12,-0.69 -0.05,-0.95 -0.17,-0.26 -0.44,-0.4 -0.8,-0.4l-16.54 0c-0.37,0 -0.73,0.14 -1.1,0.4 -0.35,0.26 -0.6,0.58 -0.73,0.95l-6.02 16.51c-0.13,0.36 -0.11,0.68 0.06,0.94 0.16,0.27 0.43,0.4 0.8,0.4l16.54 0c0.37,0 0.73,-0.13 1.09,-0.4 0.37,-0.26 0.61,-0.58 0.74,-0.94zm-14.53 -20.69l20.74 0c1.16,0 1.99,0.41 2.5,1.21 0.52,0.81 0.56,1.79 0.15,2.94l-6.04 16.57c-0.42,1.15 -1.17,2.13 -2.27,2.93 -1.1,0.81 -2.23,1.21 -3.38,1.21l-20.74 0 9.04 -24.86z"/>
   <polygon class="fil2" points="533.86,137.98 532.83,140.81 512.94,140.81 509.97,149 525.95,149 524.92,151.83 508.94,151.83 505.96,160.01 525.85,160.01 524.82,162.84 502.09,162.84 511.15,137.98 "/>
   <polygon class="fil2" points="537.97,137.98 562.86,137.98 561.83,140.81 550.82,140.81 542.8,162.84 539.98,162.84 547.99,140.81 536.94,140.81 "/>
   <path class="fil2" d="M565.19 150.93l19.23 0 3.2 -8.78c0.13,-0.36 0.11,-0.68 -0.06,-0.94 -0.16,-0.26 -0.43,-0.4 -0.8,-0.4l-16.54 0c-0.37,0 -0.73,0.14 -1.09,0.4 -0.37,0.26 -0.61,0.58 -0.74,0.94l-3.2 8.78zm6.03 -12.95l16.6 0c1.15,0 1.98,0.41 2.49,1.21 0.52,0.81 0.57,1.79 0.14,2.94l-7.53 20.71 -2.84 0 3.31 -9.08 -19.23 0 -3.3 9.08 -2.84 0 7.55 -20.71c0.41,-1.15 1.17,-2.13 2.27,-2.94 1.1,-0.8 2.23,-1.21 3.38,-1.21z"/>
   <polygon class="fil2" points="587.76,162.84 596.81,137.98 599.64,137.98 590.59,162.84 "/>
   <polygon class="fil2" points="595.82,162.84 604.88,137.95 607.72,137.95 599.69,160.01 621.75,160.01 620.72,162.84 "/>
   <polygon class="fil2" points="624.66,162.84 633.7,137.98 636.54,137.98 627.49,162.84 "/>
   <polygon class="fil2" points="655.93,159.66 663.82,137.98 666.65,137.98 657.6,162.84 653.77,162.84 643.43,141.16 635.54,162.84 632.71,162.84 641.76,137.98 645.59,137.98 "/>
   <path class="fil2" d="M694.81 142.13l-0.36 1 -2.83 0 0.36 -0.99c0.13,-0.36 0.11,-0.67 -0.06,-0.94 -0.16,-0.26 -0.43,-0.39 -0.8,-0.39l-16.54 0c-0.37,0 -0.74,0.14 -1.1,0.4 -0.36,0.26 -0.6,0.58 -0.74,0.95l-6.01 16.51c-0.13,0.36 -0.11,0.68 0.06,0.94 0.16,0.27 0.43,0.4 0.8,0.4l16.54 0c0.37,0 0.73,-0.13 1.09,-0.4 0.36,-0.26 0.61,-0.57 0.74,-0.94l2.23 -6.12 -6.15 0 1.03 -2.83 8.98 0 -3.27 8.98c-0.41,1.15 -1.18,2.13 -2.27,2.93 -1.11,0.81 -2.23,1.21 -3.38,1.21l-16.59 0c-1.16,0 -1.99,-0.4 -2.5,-1.21 -0.52,-0.8 -0.57,-1.78 -0.15,-2.93l6.04 -16.57c0.41,-1.15 1.17,-2.13 2.27,-2.94 1.11,-0.8 2.23,-1.21 3.38,-1.21l16.6 0c1.14,0 1.98,0.41 2.5,1.21 0.5,0.81 0.55,1.79 0.13,2.94z"/>
  </g>
 </g>
</svg>
